HIERARCHY
ROOT Hips
{
	OFFSET 0.000000 83.214638 0.000000
	CHANNELS 6 Xposition Yposition Zposition Xrotation Yrotation Zrotation
	JOINT Pelvis
	{
		OFFSET 0.000000 0.000000 0.000000
		CHANNELS 3 Xrotation Yrotation Zrotation
		JOINT LeftUpLeg
		{
			OFFSET 8.479700 -4.795502 -0.379100
			CHANNELS 3 Xrotation Yrotation Zrotation
			JOINT LeftLeg
			{
				OFFSET 0.024144 -32.555107 0.112900
				CHANNELS 3 Xrotation Yrotation Zrotation
				JOINT LeftFoot
				{
					OFFSET -0.024144 -32.638630 -3.012600
					CHANNELS 3 Xrotation Yrotation Zrotation
					JOINT LeftToeBase
					{
						OFFSET 0.970200 -13.225400 11.864200
						CHANNELS 3 Xrotation Yrotation Zrotation
						End Site
						{
							OFFSET 0.000000 12.319262 0.000000
						}
					}
					JOINT LFootTongue
					{
						OFFSET 1.142400 -1.059800 6.665200
						CHANNELS 3 Xrotation Yrotation Zrotation
						End Site
						{
							OFFSET 0.000000 12.319262 0.000000
						}
					}
				}
				JOINT LeftPantLeg
				{
					OFFSET 0.918482 -16.533964 -2.284700
					CHANNELS 3 Xrotation Yrotation Zrotation
					End Site
					{
						OFFSET 0.350399 24.744368 0.000000
					}
				}
			}
		}
		JOINT RightUpLeg
		{
			OFFSET -8.479700 -4.795502 -0.379100
			CHANNELS 3 Xrotation Yrotation Zrotation
			JOINT RightLeg
			{
				OFFSET -0.023144 -32.555092 0.112900
				CHANNELS 3 Xrotation Yrotation Zrotation
				JOINT RightFoot
				{
					OFFSET 0.023144 -32.638641 -3.012700
					CHANNELS 3 Xrotation Yrotation Zrotation
					JOINT RightToeBase
					{
						OFFSET -0.970200 -13.225400 11.864200
						CHANNELS 3 Xrotation Yrotation Zrotation
						End Site
						{
							OFFSET 0.000000 12.319244 0.000000
						}
					}
					JOINT RFootTongue
					{
						OFFSET -1.142200 -1.059800 6.665200
						CHANNELS 3 Xrotation Yrotation Zrotation
						End Site
						{
							OFFSET 0.000000 12.319243 0.000000
						}
					}
				}
				JOINT RightPantLeg
				{
					OFFSET -0.919482 -16.533978 -2.284800
					CHANNELS 3 Xrotation Yrotation Zrotation
					End Site
					{
						OFFSET -0.350400 24.744419 0.000000
					}
				}
			}
		}
	}
	JOINT Spine
	{
		OFFSET 0.000000 7.722000 1.166200
		CHANNELS 3 Xrotation Yrotation Zrotation
		JOINT Spine1
		{
			OFFSET 0.000000 12.024101 0.248800
			CHANNELS 3 Xrotation Yrotation Zrotation
			JOINT Spine2
			{
				OFFSET 0.000000 11.502998 -0.491200
				CHANNELS 3 Xrotation Yrotation Zrotation
				JOINT Neck
				{
					OFFSET 0.000000 18.430702 -3.123100
					CHANNELS 3 Xrotation Yrotation Zrotation
					JOINT Head
					{
						OFFSET 0.000000 9.051102 1.034000
						CHANNELS 3 Xrotation Yrotation Zrotation
						JOINT HairB
						{
							OFFSET 0.208400 24.786102 24.822300
							CHANNELS 3 Xrotation Yrotation Zrotation
							End Site
							{
								OFFSET 0.000000 32.263779 0.000000
							}
						}
						JOINT HairA
						{
							OFFSET -7.081100 24.428299 23.196600
							CHANNELS 3 Xrotation Yrotation Zrotation
							End Site
							{
								OFFSET 0.000000 32.263779 0.000000
							}
						}
						JOINT Hat
						{
							OFFSET 16.728800 15.048294 -15.439601
							CHANNELS 3 Xrotation Yrotation Zrotation
							End Site
							{
								OFFSET 0.000000 32.263779 0.000000
							}
						}
					}
				}
				JOINT LeftShoulder
				{
					OFFSET 6.197800 13.665199 -4.064700
					CHANNELS 3 Xrotation Yrotation Zrotation
					JOINT LeftArm
					{
						OFFSET 7.778100 -0.187103 -1.709300
						CHANNELS 3 Xrotation Yrotation Zrotation
						JOINT LeftForeArm
						{
							OFFSET 22.049376 0.000000 0.000000
							CHANNELS 3 Xrotation Yrotation Zrotation
							JOINT LeftHand
							{
								OFFSET 23.009392 0.000000 0.000000
								CHANNELS 3 Xrotation Yrotation Zrotation
								JOINT LeftHandThumb1
								{
									OFFSET 3.507191 -2.063065 3.133727
									CHANNELS 3 Xrotation Yrotation Zrotation
									JOINT LeftHandThumb2
									{
										OFFSET 3.101337 -1.790558 1.790558
										CHANNELS 3 Xrotation Yrotation Zrotation
										JOINT LeftHandThumb3
										{
											OFFSET 3.058640 -1.765907 1.765906
											CHANNELS 3 Xrotation Yrotation Zrotation
											End Site
											{
												OFFSET -0.415260 3.926476 -0.049563
											}
										}
									}
								}
								JOINT LeftHandIndex1
								{
									OFFSET 11.334419 -0.901459 3.706815
									CHANNELS 3 Xrotation Yrotation Zrotation
									JOINT LeftHandIndex2
									{
										OFFSET 3.283112 0.000000 0.000000
										CHANNELS 3 Xrotation Yrotation Zrotation
										JOINT LeftHandIndex3
										{
											OFFSET 3.323853 0.000000 0.000000
											CHANNELS 3 Xrotation Yrotation Zrotation
											End Site
											{
												OFFSET -1.135597 3.097809 0.402452
											}
										}
									}
								}
								JOINT LeftHandMiddle1
								{
									OFFSET 11.335861 0.000000 0.000000
									CHANNELS 3 Xrotation Yrotation Zrotation
									JOINT LeftHandMiddle2
									{
										OFFSET 3.410492 0.000000 0.000000
										CHANNELS 3 Xrotation Yrotation Zrotation
										JOINT LeftHandMiddle3
										{
											OFFSET 3.312172 0.000000 0.000000
											CHANNELS 3 Xrotation Yrotation Zrotation
											End Site
											{
												OFFSET -1.150200 3.080154 0.400270
											}
										}
									}
								}
								JOINT LeftHandRing1
								{
									OFFSET 11.514786 -0.013176 -3.003090
									CHANNELS 3 Xrotation Yrotation Zrotation
									JOINT LeftHandRing2
									{
										OFFSET 3.053307 0.000000 0.000000
										CHANNELS 3 Xrotation Yrotation Zrotation
										JOINT LeftHandRing3
										{
											OFFSET 3.295807 0.000000 0.000000
											CHANNELS 3 Xrotation Yrotation Zrotation
											End Site
											{
												OFFSET -1.281006 3.013344 0.375733
											}
										}
									}
								}
								JOINT LeftHandPinky1
								{
									OFFSET 10.518692 -0.960396 -5.730441
									CHANNELS 3 Xrotation Yrotation Zrotation
									JOINT LeftHandPinky2
									{
										OFFSET 2.861649 0.000000 0.000000
										CHANNELS 3 Xrotation Yrotation Zrotation
										JOINT LeftHandPinky3
										{
											OFFSET 2.863380 0.000000 0.000000
											CHANNELS 3 Xrotation Yrotation Zrotation
											End Site
											{
												OFFSET -0.843597 2.711159 0.369971
											}
										}
									}
								}
							}
							JOINT LSleeve
							{
								OFFSET 6.676277 -0.344902 -1.011730
								CHANNELS 3 Xrotation Yrotation Zrotation
								End Site
								{
									OFFSET 0.000000 14.885353 0.000000
								}
							}
						}
					}
				}
				JOINT RightShoulder
				{
					OFFSET -6.197800 13.665199 -4.064700
					CHANNELS 3 Xrotation Yrotation Zrotation
					JOINT RightArm
					{
						OFFSET -7.778100 -0.187103 -1.709300
						CHANNELS 3 Xrotation Yrotation Zrotation
						JOINT RightForeArm
						{
							OFFSET -22.049376 0.000000 0.000000
							CHANNELS 3 Xrotation Yrotation Zrotation
							JOINT RightHand
							{
								OFFSET -23.009392 0.000000 0.000000
								CHANNELS 3 Xrotation Yrotation Zrotation
								JOINT RightHandThumb1
								{
									OFFSET -3.507191 -2.063065 3.133727
									CHANNELS 3 Xrotation Yrotation Zrotation
									JOINT RightHandThumb2
									{
										OFFSET -3.101337 -1.790558 1.790558
										CHANNELS 3 Xrotation Yrotation Zrotation
										JOINT RightHandThumb3
										{
											OFFSET -3.058640 -1.765907 1.765906
											CHANNELS 3 Xrotation Yrotation Zrotation
											End Site
											{
												OFFSET 0.415260 3.926476 -0.049563
											}
										}
									}
								}
								JOINT RightHandIndex1
								{
									OFFSET -11.334419 -0.901459 3.706815
									CHANNELS 3 Xrotation Yrotation Zrotation
									JOINT RightHandIndex2
									{
										OFFSET -3.283112 0.000000 0.000000
										CHANNELS 3 Xrotation Yrotation Zrotation
										JOINT RightHandIndex3
										{
											OFFSET -3.323853 0.000000 0.000000
											CHANNELS 3 Xrotation Yrotation Zrotation
											End Site
											{
												OFFSET 1.135597 3.097809 0.402452
											}
										}
									}
								}
								JOINT RightHandMiddle1
								{
									OFFSET -11.335861 0.000000 0.000000
									CHANNELS 3 Xrotation Yrotation Zrotation
									JOINT RightHandMiddle2
									{
										OFFSET -3.410492 0.000000 0.000000
										CHANNELS 3 Xrotation Yrotation Zrotation
										JOINT RightHandMiddle3
										{
											OFFSET -3.312172 0.000000 0.000000
											CHANNELS 3 Xrotation Yrotation Zrotation
											End Site
											{
												OFFSET 1.150200 3.080154 0.400270
											}
										}
									}
								}
								JOINT RightHandRing1
								{
									OFFSET -11.514786 -0.013176 -3.003090
									CHANNELS 3 Xrotation Yrotation Zrotation
									JOINT RightHandRing2
									{
										OFFSET -3.053307 0.000000 0.000000
										CHANNELS 3 Xrotation Yrotation Zrotation
										JOINT RightHandRing3
										{
											OFFSET -3.295807 0.000000 0.000000
											CHANNELS 3 Xrotation Yrotation Zrotation
											End Site
											{
												OFFSET 1.281006 3.013344 0.375733
											}
										}
									}
								}
								JOINT RightHandPinky1
								{
									OFFSET -10.518692 -0.960396 -5.730441
									CHANNELS 3 Xrotation Yrotation Zrotation
									JOINT RightHandPinky2
									{
										OFFSET -2.861649 0.000000 0.000000
										CHANNELS 3 Xrotation Yrotation Zrotation
										JOINT RightHandPinky3
										{
											OFFSET -2.863380 0.000000 0.000000
											CHANNELS 3 Xrotation Yrotation Zrotation
											End Site
											{
												OFFSET 0.843597 2.711159 0.369971
											}
										}
									}
								}
							}
							JOINT RSleeve
							{
								OFFSET -6.676277 -0.344902 -1.011730
								CHANNELS 3 Xrotation Yrotation Zrotation
								End Site
								{
									OFFSET 0.000000 14.885353 0.000000
								}
							}
						}
					}
				}
				JOINT Backpack
				{
					OFFSET 0.000000 -2.471497 36.677502
					CHANNELS 3 Xrotation Yrotation Zrotation
					End Site
					{
						OFFSET 0.000000 20.427315 0.000000
					}
				}
				JOINT Hood
				{
					OFFSET 0.000000 18.754097 -10.431000
					CHANNELS 3 Xrotation Yrotation Zrotation
					JOINT Hood1
					{
						OFFSET 0.000000 -5.011002 -7.685901
						CHANNELS 3 Xrotation Yrotation Zrotation
						End Site
						{
							OFFSET 0.000000 9.175140 0.000000
						}
					}
				}
				JOINT LHoodieString
				{
					OFFSET 5.250500 16.397697 3.089900
					CHANNELS 3 Xrotation Yrotation Zrotation
					JOINT LHoodieString1
					{
						OFFSET 0.257700 -6.364304 3.694600
						CHANNELS 3 Xrotation Yrotation Zrotation
						JOINT LHoodieString2
						{
							OFFSET 0.000000 -9.643799 2.679100
							CHANNELS 3 Xrotation Yrotation Zrotation
							End Site
							{
								OFFSET 0.000000 10.009018 0.000000
							}
						}
					}
				}
				JOINT RHoodieString
				{
					OFFSET -5.250500 16.397697 3.089900
					CHANNELS 3 Xrotation Yrotation Zrotation
					JOINT RHoodieString1
					{
						OFFSET -0.257700 -6.364304 3.694600
						CHANNELS 3 Xrotation Yrotation Zrotation
						JOINT RHoodieString2
						{
							OFFSET 0.000000 -9.643799 2.679100
							CHANNELS 3 Xrotation Yrotation Zrotation
							End Site
							{
								OFFSET 0.000000 10.009018 0.000000
							}
						}
					}
				}
			}
			JOINT LBackpack_Strap
			{
				OFFSET 15.223200 -7.719803 -6.610900
				CHANNELS 3 Xrotation Yrotation Zrotation
				End Site
				{
					OFFSET 0.000000 16.040596 0.000000
				}
			}
			JOINT RBackpack_Strap
			{
				OFFSET -15.223000 -7.719803 -6.610900
				CHANNELS 3 Xrotation Yrotation Zrotation
				End Site
				{
					OFFSET 0.000000 16.040596 0.000000
				}
			}
		}
	}
	JOINT BoyFacialAnim_Joint
	{
		OFFSET 1.000000 -82.208099 -1.550900
		CHANNELS 3 Xrotation Yrotation Zrotation
		End Site
		{
			OFFSET 0.000000 30.012791 0.000000
		}
	}
}
MOTION
Frames: 4
Frame Time: 0.016667
0.067295 81.500801 0.476136 1.940154 1.906570 -0.362074 0.000000 0.000000 0.000000 -31.850473 8.665439 5.648702 56.235775 -4.652998 -0.540247 4.197715 0.031835 -2.014012 0.000002 0.000000 -0.000001 0.000002 0.000000 -0.000000 0.000002 -0.000001 0.000000 -14.604985 -7.480301 1.851814 21.826839 2.702644 -3.878739 -9.836963 -0.005907 0.253452 -0.000000 -0.000000 0.000000 -0.000000 -0.000000 0.000000 0.000000 0.000000 0.000000 6.178691 -1.227892 0.242314 2.498167 -2.419468 1.232352 2.471487 -2.375263 1.342052 -0.476783 2.129174 -0.237604 -3.192702 4.531152 -1.881902 0.000000 0.000000 -0.000000 0.000000 0.000000 -0.000000 0.000000 0.000000 -0.000000 0.352373 -9.169219 -14.380740 9.011956 -24.442290 -57.554610 -0.000005 -11.061373 0.000012 3.271992 3.566759 -10.594349 5.264568 3.579093 10.848986 6.474987 8.367003 6.368022 0.000000 0.000002 0.000001 -2.233897 -4.155346 -17.702575 0.202679 1.529123 -15.099455 0.000001 0.000003 0.000002 0.434901 4.486722 -26.650211 0.126208 1.210709 -11.901609 0.000001 -0.000003 0.000003 1.633478 6.797657 -27.448954 0.330723 1.942289 -19.325004 -0.000001 0.000003 -0.000005 3.038390 8.521927 -34.072723 0.278521 1.786581 -17.720719 0.000002 0.000003 0.000002 -0.000002 -0.000001 -0.000001 0.552466 4.135210 15.717227 3.061862 28.096191 49.279880 0.000003 23.795805 -0.000008 -1.370130 0.937410 5.904109 12.604612 -3.092113 -3.819394 4.958757 -19.016355 -8.084341 -0.000002 0.000002 0.000001 -2.604804 4.000960 20.793299 0.395184 -1.879138 23.750089 -0.000003 -0.000002 0.000001 -1.114219 -0.327549 22.216047 0.858155 -2.695805 35.310090 -0.000000 0.000001 -0.000000 -0.268975 -2.585342 24.354274 1.505968 -3.430902 47.387446 -0.000003 -0.000005 0.000001 -0.053533 -3.321020 29.341782 0.569535 -2.233605 28.606378 0.000001 -0.000001 -0.000002 -0.000001 -0.000001 -0.000001 0.000000 -0.000000 0.000000 0.000000 -0.000000 0.000000 0.000000 -0.000000 0.000000 0.000000 -0.000000 0.000000 0.000000 -0.000000 -0.000000 -0.000001 0.000000 -0.000000 0.000000 -0.000000 0.000000 0.000000 -0.000000 -0.000000 -0.000001 0.000000 -0.000000 -0.000000 0.000000 0.000000 -0.000000 0.000000 0.000000 0.000000 0.000000 0.000000 
0.068868 81.500595 0.478113 1.939830 1.906961 -0.361777 0.000000 -0.000000 0.000000 -31.850678 8.663805 5.651082 56.234232 -4.651058 -0.539899 4.195676 0.033039 -2.015601 0.000001 0.000001 0.000000 0.000001 0.000001 0.000000 0.000001 0.000000 0.000000 -14.604355 -7.480144 1.850106 21.829148 2.701985 -3.878762 -9.840020 -0.004746 0.254896 -0.000000 -0.000000 0.000000 -0.000000 -0.000000 0.000000 -0.000001 -0.000000 -0.000000 6.179133 -1.226341 0.242205 2.498233 -2.417830 1.232011 2.471640 -2.373642 1.341658 -0.476553 2.128852 -0.237603 -3.192826 4.526923 -1.879946 0.000001 -0.000000 0.000000 0.000001 -0.000000 0.000000 0.000001 -0.000000 0.000000 0.352426 -9.169998 -14.382083 9.010349 -24.438420 -57.554391 0.000001 -11.063227 -0.000016 3.257405 3.553995 -10.593112 5.263816 3.578401 10.848680 6.474954 8.367293 6.367675 -0.000001 -0.000001 -0.000000 -2.233610 -4.154910 -17.701598 0.202650 1.529041 -15.098405 -0.000003 0.000001 -0.000002 0.434870 4.486600 -26.648617 0.126191 1.210634 -11.900800 -0.000002 0.000000 0.000002 1.633290 6.797403 -27.447281 0.330676 1.942144 -19.323718 0.000002 0.000003 -0.000002 3.038015 8.521592 -34.070575 0.278490 1.786460 -17.719520 0.000001 -0.000001 0.000001 0.000002 -0.000000 0.000000 0.552000 4.136470 15.717546 3.065230 28.095304 49.277937 0.000005 23.806288 -0.000043 -1.366990 0.936648 5.900781 12.604081 -3.090586 -3.818887 4.958342 -19.014772 -8.084010 -0.000001 0.000001 0.000000 -2.604902 4.001874 20.791740 0.395124 -1.879003 23.748354 -0.000000 -0.000001 0.000003 -1.114374 -0.326929 22.214458 0.858065 -2.695691 35.308407 -0.000003 -0.000001 0.000001 -0.268921 -2.585370 24.352599 1.505867 -3.430801 47.385776 -0.000003 0.000000 0.000002 -0.052965 -3.321967 29.340071 0.569469 -2.233482 28.604689 -0.000000 -0.000001 0.000003 -0.000004 -0.000001 0.000001 0.000001 -0.000000 0.000000 0.000001 -0.000000 0.000000 0.000001 -0.000000 0.000000 0.000001 -0.000000 0.000000 0.000001 -0.000000 0.000000 0.000001 -0.000000 0.000000 0.000001 -0.000000 0.000000 0.000001 -0.000000 0.000000 0.000001 -0.000000 0.000000 -0.000000 0.000000 0.000000 -0.000000 0.000000 0.000000 0.000000 -0.000000 0.000000 
0.847267 81.396339 1.431052 1.781251 2.098353 -0.207183 0.000000 -0.000000 0.000000 -31.922426 7.865062 6.811375 55.422863 -3.693006 -0.371248 3.224351 0.626657 -2.809570 -0.000002 -0.000001 0.000000 -0.000002 -0.000001 0.000001 0.000001 -0.000000 -0.000001 -14.108772 -7.394470 0.983902 22.648935 2.394177 -3.827002 -11.011820 0.569871 0.947703 0.000000 0.000000 -0.000000 0.000000 0.000000 -0.000000 -0.000000 -0.000000 -0.000000 6.394029 -0.465251 0.180670 2.528580 -1.613456 1.064342 2.545423 -1.578220 1.147881 -0.365329 1.971524 -0.237603 -3.183211 2.474958 -1.431030 0.000000 -0.000000 -0.000000 0.000000 -0.000000 -0.000000 0.000000 -0.000000 -0.000000 0.372032 -9.555645 -15.041972 8.216915 -22.540963 -57.446713 0.000004 -11.975302 -0.000001 3.731475 3.720168 -10.301915 4.891366 3.235534 10.703805 6.454783 8.503246 6.197281 -0.000004 -0.000000 0.000000 -2.093292 -3.936371 -17.208616 0.189389 1.479054 -14.593606 -0.000001 -0.000001 -0.000004 0.414347 4.427923 -25.861106 0.117927 1.170735 -11.502999 -0.000004 0.000001 -0.000001 1.539065 6.674520 -26.628326 0.309126 1.879609 -18.677441 0.000001 0.000000 -0.000000 2.853490 8.358681 -33.022848 0.260313 1.728592 -17.127010 -0.000001 -0.000002 0.000005 -0.000000 0.000000 -0.000000 0.321550 4.755069 15.877632 5.691792 26.887830 47.980716 -0.000001 30.206611 0.000005 0.161398 0.516856 4.276208 12.348102 -2.339944 -3.584503 4.747159 -18.240206 -7.943256 0.000002 0.000001 -0.000002 -2.640441 4.449042 20.018074 0.367980 -1.816107 22.906672 -0.000001 0.000002 0.000004 -1.172899 -0.021093 21.413910 0.819453 -2.640396 34.478973 -0.000001 -0.000001 -0.000002 -0.236777 -2.596239 23.523559 1.456674 -3.384965 46.558224 -0.000003 -0.000004 0.000003 0.223283 -3.787745 28.484146 0.537726 -2.174304 27.779085 -0.000004 0.000002 0.000002 0.000002 0.000002 -0.000002 0.000001 -0.000000 -0.000000 0.000001 -0.000000 -0.000000 0.000001 -0.000000 -0.000000 0.000001 -0.000000 -0.000000 0.000001 -0.000000 -0.000000 0.000001 0.000000 -0.000000 0.000001 -0.000000 -0.000000 0.000001 -0.000000 -0.000000 0.000001 0.000000 -0.000000 -0.000000 -0.000000 -0.000000 -0.000000 -0.000000 -0.000000 0.000000 -0.000000 0.000000 
1.702129 81.281189 2.406449 1.665070 2.257544 -0.036665 0.000000 -0.000000 0.000000 -31.660522 7.097847 8.062042 53.794263 -2.184260 -0.165592 2.408102 1.228851 -4.050687 -0.000000 0.000000 -0.000001 -0.000000 0.000000 -0.000000 -0.000002 0.000001 -0.000000 -13.601995 -7.315922 -0.000313 23.359684 2.122371 -3.700448 -12.103073 1.193797 1.679505 -0.000000 0.000000 0.000000 -0.000000 0.000000 0.000000 -0.000001 0.000000 0.000000 6.607309 0.279401 0.103229 2.561886 -0.802064 0.887916 2.621668 -0.776054 0.944272 -0.268467 1.815119 -0.237641 -3.233341 0.353598 -1.007019 0.000001 -0.000000 0.000000 0.000001 -0.000000 0.000000 0.000001 -0.000000 0.000000 0.371285 -9.985388 -15.641497 7.405627 -20.584768 -57.407173 -0.000001 -12.913621 0.000017 4.214070 3.996367 -10.057974 4.508189 2.883748 10.550097 6.434244 8.643664 6.022191 0.000002 -0.000003 -0.000001 -1.948701 -3.694171 -16.699966 0.176229 1.427541 -14.074307 -0.000000 0.000001 -0.000002 0.393823 4.367401 -25.050982 0.109707 1.129622 -11.093779 -0.000004 -0.000001 0.000002 1.442353 6.540923 -25.786645 0.287694 1.815019 -18.012647 0.000000 0.000003 -0.000003 2.655557 8.164928 -31.946851 0.242250 1.668852 -16.517479 0.000000 -0.000002 -0.000002 -0.000001 -0.000000 -0.000000 0.086858 5.408573 15.971887 7.876288 25.924900 46.850067 0.000002 35.801126 0.000013 1.774343 0.205093 2.579188 12.069502 -1.522697 -3.323958 4.515118 -17.396345 -7.788261 0.000003 0.000002 -0.000002 -2.666702 4.938878 19.174984 0.339449 -1.747099 21.989256 0.000002 0.000001 0.000004 -1.228167 0.314524 20.541888 0.778299 -2.579491 33.574970 -0.000001 0.000002 0.000000 -0.203316 -2.609192 22.619797 1.403816 -3.334216 45.656239 -0.000004 0.000000 0.000000 0.507717 -4.304784 27.552420 0.504105 -2.109263 26.879233 -0.000000 -0.000001 -0.000002 -0.000000 -0.000003 0.000002 -0.000001 -0.000000 -0.000000 -0.000001 -0.000000 -0.000000 -0.000001 -0.000000 -0.000000 -0.000001 -0.000000 -0.000000 -0.000001 -0.000000 -0.000000 -0.000001 -0.000000 -0.000000 -0.000001 -0.000000 -0.000000 -0.000001 -0.000000 -0.000000 -0.000001 -0.000000 -0.000000 0.000001 0.000000 -0.000000 0.000001 0.000000 -0.000000 0.000000 -0.000000 0.000000 
